Coordinates
version=1
nRows=16
nColumns=40
inDegrees=yes

Units are S.I. units (second, meters, Newtons, ...)
If the header above contains a line with 'inDegrees', this indicates whether rotational values are in degrees (yes) or radians (no).

endheader
time	pelvis_tilt	pelvis_list	pelvis_rotation	pelvis_tx	pelvis_ty	pelvis_tz	hip_flexion_r	hip_adduction_r	hip_rotation_r	knee_angle_r	knee_angle_r_beta	ankle_angle_r	subtalar_angle_r	mtp_angle_r	hip_flexion_l	hip_adduction_l	hip_rotation_l	knee_angle_l	knee_angle_l_beta	ankle_angle_l	subtalar_angle_l	mtp_angle_l	lumbar_extension	lumbar_bending	lumbar_rotation	arm_flex_r	arm_add_r	arm_rot_r	elbow_flex_r	pro_sup_r	wrist_flex_r	wrist_dev_r	arm_flex_l	arm_add_l	arm_rot_l	elbow_flex_l	pro_sup_l	wrist_flex_l	wrist_dev_l
      8.72500000	    -21.65484264	     -2.49333269	   -176.39979222	      0.25655003	      0.91229070	     -0.59816458	    -19.53013833	    -10.77799367	    -19.59751457	      3.07755539	      0.05371347	      0.60554454	      0.00000000	      0.00000000	    -18.30033371	     -8.93713284	    -12.99096694	      1.76069463	      0.03072992	     -2.27651522	      0.00000000	      0.00000000	    -25.62842770	     -5.53288609	     -2.86389572	     14.73567690	      2.33204095	    -16.03231529	     12.68426075	     27.45690729	      0.00000000	      0.00000000	     17.71911174	     -4.01162764	     -0.01422168	      9.62485673	     23.54481782	      0.00000000	      0.00000000
      8.73000000	    -21.60464755	     -2.52421677	   -176.38862689	      0.25660602	      0.91223915	     -0.59814042	    -19.45313526	    -10.82540266	    -19.62957183	      3.14595387	      0.05490725	      0.66738452	      0.00000000	      0.00000000	    -18.25136405	     -8.89905067	    -13.01261840	      1.73440401	      0.03027106	     -2.33341321	      0.00000000	      0.00000000	    -25.58844685	     -5.55423033	     -2.98112989	     14.63824003	      2.21536278	    -14.70280817	     12.66698056	     28.23429990	      0.00000000	      0.00000000	     17.97095647	     -3.86850118	     -1.73893965	      9.26067449	     24.39281685	      0.00000000	      0.00000000
      8.73500000	    -21.66739037	     -2.53905584	   -176.34541442	      0.25675227	      0.91229156	     -0.59811094	    -19.57934670	    -10.79614479	    -19.63822902	      3.02244889	      0.05275168	      0.60581911	      0.00000000	      0.00000000	    -18.32450753	     -8.89567031	    -12.98660490	      1.69526075	      0.02958788	     -2.33754881	      0.00000000	      0.00000000	    -25.65396329	     -5.56706889	     -2.87194206	     14.87938441	      2.37142362	    -16.57254156	     12.57842570	     26.92796688	      0.00000000	      0.00000000	     17.66199158	     -4.08047210	      0.76139795	      9.66597119	     23.73083956	      0.00000000	      0.00000000
      8.74000000	    -21.69300511	     -2.43492208	   -176.37611358	      0.25675869	      0.91230761	     -0.59820170	    -19.61106067	    -10.68075832	    -19.56084180	      2.96226996	      0.05170136	      0.50352550	      0.00000000	      0.00000000	    -18.39089413	     -8.99446176	    -13.04453352	      1.64469643	      0.02870537	     -2.34748410	      0.00000000	      0.00000000	    -25.66972127	     -5.47511257	     -2.89035006	     14.65450944	      2.22465878	    -14.85470594	     12.85658198	     26.22424266	      0.00000000	      0.00000000	     17.77950743	     -3.99969975	     -0.15122158	      9.54939911	     23.21838953	      0.00000000	      0.00000000
      8.74500000	    -21.67862541	     -2.50888426	   -176.35944847	      0.25685239	      0.91229377	     -0.59820465	    -19.60972251	    -10.75665832	    -19.57768510	      2.96446238	      0.05173963	      0.57484645	      0.00000000	      0.00000000	    -18.37587413	     -8.91870511	    -12.99923017	      1.61842749	      0.02824689	     -2.34361498	      0.00000000	      0.00000000	    -25.65995148	     -5.55884614	     -2.87382999	     14.79520484	      2.31579331	    -15.73502598	     12.75326118	     26.05362164	      0.00000000	      0.00000000	     17.74923355	     -4.05767701	      0.50535320	      9.59976223	     23.23010437	      0.00000000	      0.00000000
      8.75000000	    -21.69524149	     -2.50912258	   -176.32856843	      0.25701339	      0.91231375	     -0.59820637	    -19.65789564	    -10.72992564	    -19.56882299	      2.88613582	      0.05037257	      0.50160441	      0.00000000	      0.00000000	    -18.37549547	     -8.93008188	    -12.96892363	      1.62438929	      0.02835094	     -2.37692517	      0.00000000	      0.00000000	    -25.70654572	     -5.53588976	     -3.02796222	     14.49241226	      2.11646768	    -13.40903296	     13.09969452	     25.63960301	      0.00000000	      0.00000000	     17.89044199	     -3.98156269	     -0.56092753	      9.45425451	     22.87492706	      0.00000000	      0.00000000
      8.75500000	    -21.77717662	     -2.47427989	   -176.39820613	      0.25718995	      0.91238920	     -0.59840469	    -19.67669553	    -10.71387181	    -19.54208821	      2.96590951	      0.05176489	      0.53230262	      0.00000000	      0.00000000	    -18.48675812	     -8.95846135	    -13.05704382	      1.59213413	      0.02778798	     -2.42257989	      0.00000000	      0.00000000	    -25.79356956	     -5.54359303	     -2.88198446	     14.28186660	      1.90739565	    -12.00322487	     13.10345913	     28.47027915	      0.00000000	      0.00000000	     17.74344475	     -4.11342706	      0.76401133	      9.48550340	     25.72223005	      0.00000000	      0.00000000
      8.76000000	    -21.77110669	     -2.54489898	   -176.32305348	      0.25723846	      0.91234399	     -0.59834814	    -19.72293711	    -10.75060723	    -19.53136236	      2.91677247	      0.05090728	      0.54873142	      0.00000000	      0.00000000	    -18.46183412	     -8.90748492	    -12.94148523	      1.58198755	      0.02761089	     -2.40232207	      0.00000000	      0.00000000	    -25.80495101	     -5.60605403	     -2.80886935	     14.82155597	      2.27734024	    -15.75117925	     12.39769168	     30.98550546	      0.00000000	      0.00000000	     17.62386125	     -4.23538242	      2.37556603	      9.67715962	     25.24706016	      0.00000000	      0.00000000
      8.76500000	    -21.76425804	     -2.55514821	   -176.33466927	      0.25738411	      0.91231857	     -0.59846190	    -19.68377843	    -10.76933387	    -19.48039463	      2.96048801	      0.05167026	      0.57651042	      0.00000000	      0.00000000	    -18.44272605	     -8.90005067	    -12.93073583	      1.58612005	      0.02768302	     -2.39355789	      0.00000000	      0.00000000	    -25.82674524	     -5.62389210	     -2.91944082	     14.89317440	      2.35343440	    -15.51634903	     12.62627021	     27.78745898	      0.00000000	      0.00000000	     17.86987363	     -4.11030213	      1.01307043	      9.48621083	     23.28490336	      0.00000000	      0.00000000
      8.77000000	    -21.83669870	     -2.46248943	   -176.27216779	      0.25752210	      0.91237740	     -0.59845479	    -19.75779322	    -10.63818726	    -19.48644040	      2.94904006	      0.05147046	      0.52600071	      0.00000000	      0.00000000	    -18.47652039	     -9.03143787	    -12.93294691	      1.63768903	      0.02858307	     -2.36683453	      0.00000000	      0.00000000	    -25.92189853	     -5.49492171	     -2.98833465	     14.59802058	      2.09106118	    -13.28373162	     12.84285081	     28.87304546	      0.00000000	      0.00000000	     17.91007229	     -4.11100576	      0.79241929	      9.34155297	     24.86441942	      0.00000000	      0.00000000
      8.77500000	    -21.86608476	     -2.52221433	   -176.25915438	      0.25769151	      0.91239236	     -0.59857478	    -19.75646822	    -10.70317771	    -19.50969373	      3.02340278	      0.05276833	      0.56136571	      0.00000000	      0.00000000	    -18.48800638	     -8.98618779	    -12.88449325	      1.63508532	      0.02853762	     -2.43263854	      0.00000000	      0.00000000	    -25.97565301	     -5.58927441	     -2.85063223	     15.00129560	      2.36981834	    -16.04138072	     12.50302406	     28.49351142	      0.00000000	      0.00000000	     17.73370337	     -4.29440785	      2.88746974	      9.63517285	     24.41200123	      0.00000000	      0.00000000
      8.78000000	    -21.92843827	     -2.51149690	   -176.24845883	      0.25785207	      0.91242767	     -0.59867521	    -19.77080083	    -10.69491800	    -19.51239858	      3.11878120	      0.05443300	      0.61282304	      0.00000000	      0.00000000	    -18.52235068	     -9.01368735	    -12.90125669	      1.66791655	      0.02911064	     -2.47156004	      0.00000000	      0.00000000	    -26.07808134	     -5.55497765	     -3.04349680	     14.47278818	      1.97525759	    -12.04664203	     12.93283750	     30.27688580	      0.00000000	      0.00000000	     17.90758221	     -4.21912501	      1.34290848	      9.30991749	     26.01878367	      0.00000000	      0.00000000
      8.78500000	    -21.90037562	     -2.47272729	   -176.11047463	      0.25793081	      0.91236524	     -0.59867101	    -19.73561585	    -10.60681649	    -19.62857552	      3.16831785	      0.05529758	      0.62798269	      0.00000000	      0.00000000	    -18.43905577	     -9.11531412	    -12.73916653	      1.70453232	      0.02974970	     -2.40586931	      0.00000000	      0.00000000	    -26.05332599	     -5.51124648	     -2.83892251	     15.38287547	      2.59095732	    -18.23080636	     12.21068826	     28.17748922	      0.00000000	      0.00000000	     17.53176564	     -4.53480595	      4.95440617	      9.94012573	     24.18347482	      0.00000000	      0.00000000
      8.79000000	    -21.92988631	     -2.51947507	   -176.14630624	      0.25802675	      0.91237730	     -0.59885419	    -19.72649075	    -10.67058929	    -19.58185884	      3.23662593	      0.05648978	      0.69010433	      0.00000000	      0.00000000	    -18.45017759	     -9.06803382	    -12.76991668	      1.73406041	      0.03026506	     -2.40593858	      0.00000000	      0.00000000	    -26.12456625	     -5.56703203	     -3.02271057	     15.00132991	      2.36206292	    -15.26672169	     12.57919727	     28.74339313	      0.00000000	      0.00000000	     17.93237891	     -4.31381446	      2.46374784	      9.34797129	     24.85780847	      0.00000000	      0.00000000
      8.79500000	    -21.95717540	     -2.48808746	   -176.11956524	      0.25815081	      0.91238828	     -0.59897595	    -19.72467179	    -10.62627819	    -19.57470512	      3.27928002	      0.05723423	      0.70521537	      0.00000000	      0.00000000	    -18.45540587	     -9.11954813	    -12.75711746	      1.74403679	      0.03043918	     -2.43623914	      0.00000000	      0.00000000	    -26.17134333	     -5.53949906	     -2.97217464	     15.25744261	      2.53860326	    -16.73638080	     12.66696200	     24.82930348	      0.00000000	      0.00000000	     17.81676512	     -4.40795916	      3.48258759	      9.75734471	     21.41320530	      0.00000000	      0.00000000
      8.80000000	    -22.01931588	     -2.46883571	   -176.10516929	      0.25828337	      0.91239509	     -0.59905483	    -19.73960891	    -10.61049112	    -19.56967369	      3.38120901	      0.05901323	      0.72521523	      0.00000000	      0.00000000	    -18.46483799	     -9.16663313	    -12.82125029	      1.82847707	      0.03191295	     -2.47070571	      0.00000000	      0.00000000	    -26.24542828	     -5.51564194	     -2.90045172	     15.16349880	      2.41937259	    -16.19223887	     12.38169070	     29.70183214	      0.00000000	      0.00000000	     17.78643444	     -4.50777051	      4.70451836	      9.54454282	     24.89506573	      0.00000000	      0.00000000
